<mxfile host="app.diagrams.net" modified="2020-06-13T06:34:36.614Z" agent="5.0 (Macintosh; Intel Mac OS X 10_14_6) AppleWebKit/537.36 (KHTML, like Gecko) Chrome/83.0.4103.97 Safari/537.36" etag="xeAD87kMulszaFbtUmtA" version="13.2.3" type="github">
  <diagram id="kNY7dihv07hq0ZUtpUV4" name="Page-1">
    <mxGraphModel dx="946" dy="565" grid="1" gridSize="10" guides="1" tooltips="1" connect="1" arrows="1" fold="1" page="1" pageScale="1" pageWidth="827" pageHeight="1169" math="0" shadow="0">
      <root>
        <mxCell id="0" />
        <mxCell id="1" parent="0" />
        <mxCell id="PEJdaX_Vnmm6AX028ZyF-17" value="" style="edgeStyle=orthogonalEdgeStyle;rounded=0;orthogonalLoop=1;jettySize=auto;html=1;" parent="1" source="PEJdaX_Vnmm6AX028ZyF-1" target="PEJdaX_Vnmm6AX028ZyF-7" edge="1">
          <mxGeometry relative="1" as="geometry">
            <mxPoint x="45" y="380" as="targetPoint" />
          </mxGeometry>
        </mxCell>
        <mxCell id="PEJdaX_Vnmm6AX028ZyF-1" value="Client" style="shape=umlActor;verticalLabelPosition=bottom;labelBackgroundColor=#ffffff;verticalAlign=top;html=1;outlineConnect=0;" parent="1" vertex="1">
          <mxGeometry x="30" y="240" width="30" height="60" as="geometry" />
        </mxCell>
        <mxCell id="PEJdaX_Vnmm6AX028ZyF-9" value="" style="edgeStyle=orthogonalEdgeStyle;rounded=0;orthogonalLoop=1;jettySize=auto;html=1;" parent="1" source="PEJdaX_Vnmm6AX028ZyF-7" target="PEJdaX_Vnmm6AX028ZyF-8" edge="1">
          <mxGeometry relative="1" as="geometry" />
        </mxCell>
        <mxCell id="PEJdaX_Vnmm6AX028ZyF-33" value="" style="edgeStyle=orthogonalEdgeStyle;rounded=0;orthogonalLoop=1;jettySize=auto;html=1;" parent="1" source="PEJdaX_Vnmm6AX028ZyF-7" target="PEJdaX_Vnmm6AX028ZyF-32" edge="1">
          <mxGeometry relative="1" as="geometry" />
        </mxCell>
        <mxCell id="PEJdaX_Vnmm6AX028ZyF-34" value="video" style="edgeLabel;html=1;align=center;verticalAlign=middle;resizable=0;points=[];" parent="PEJdaX_Vnmm6AX028ZyF-33" vertex="1" connectable="0">
          <mxGeometry x="-0.1368" y="1" relative="1" as="geometry">
            <mxPoint as="offset" />
          </mxGeometry>
        </mxCell>
        <mxCell id="PEJdaX_Vnmm6AX028ZyF-7" value="Aliyun CDN" style="rounded=1;whiteSpace=wrap;html=1;" parent="1" vertex="1">
          <mxGeometry x="80" y="350" width="120" height="60" as="geometry" />
        </mxCell>
        <mxCell id="PEJdaX_Vnmm6AX028ZyF-32" value="Aliyun OSS" style="rounded=1;whiteSpace=wrap;html=1;" parent="1" vertex="1">
          <mxGeometry x="200" y="220" width="120" height="60" as="geometry" />
        </mxCell>
        <mxCell id="PEJdaX_Vnmm6AX028ZyF-11" value="" style="edgeStyle=orthogonalEdgeStyle;rounded=0;orthogonalLoop=1;jettySize=auto;html=1;" parent="1" source="PEJdaX_Vnmm6AX028ZyF-8" target="PEJdaX_Vnmm6AX028ZyF-10" edge="1">
          <mxGeometry relative="1" as="geometry" />
        </mxCell>
        <mxCell id="PEJdaX_Vnmm6AX028ZyF-8" value="SLB" style="rounded=1;whiteSpace=wrap;html=1;" parent="1" vertex="1">
          <mxGeometry x="280" y="350" width="120" height="60" as="geometry" />
        </mxCell>
        <mxCell id="PEJdaX_Vnmm6AX028ZyF-13" value="" style="edgeStyle=orthogonalEdgeStyle;rounded=0;orthogonalLoop=1;jettySize=auto;html=1;" parent="1" source="PEJdaX_Vnmm6AX028ZyF-10" target="PEJdaX_Vnmm6AX028ZyF-12" edge="1">
          <mxGeometry relative="1" as="geometry" />
        </mxCell>
        <mxCell id="PEJdaX_Vnmm6AX028ZyF-10" value="Nginx Cluster&lt;br&gt;172.17.209.241&lt;br&gt;172.17.209.242&lt;br&gt;172.17.209.244" style="rounded=1;whiteSpace=wrap;html=1;" parent="1" vertex="1">
          <mxGeometry x="480" y="350" width="120" height="60" as="geometry" />
        </mxCell>
        <mxCell id="PEJdaX_Vnmm6AX028ZyF-15" value="" style="edgeStyle=orthogonalEdgeStyle;rounded=0;orthogonalLoop=1;jettySize=auto;html=1;" parent="1" source="PEJdaX_Vnmm6AX028ZyF-12" target="PEJdaX_Vnmm6AX028ZyF-14" edge="1">
          <mxGeometry relative="1" as="geometry" />
        </mxCell>
        <mxCell id="PEJdaX_Vnmm6AX028ZyF-12" value="App Cluster&lt;br&gt;172.17.209.241&lt;br&gt;172.17.209.242&lt;br&gt;172.17.209.244" style="rounded=1;whiteSpace=wrap;html=1;" parent="1" vertex="1">
          <mxGeometry x="680" y="350" width="120" height="60" as="geometry" />
        </mxCell>
        <mxCell id="PEJdaX_Vnmm6AX028ZyF-14" value="DB cluster&lt;br&gt;Aliyun RDS" style="rounded=1;whiteSpace=wrap;html=1;" parent="1" vertex="1">
          <mxGeometry x="680" y="490" width="120" height="60" as="geometry" />
        </mxCell>
        <mxCell id="PEJdaX_Vnmm6AX028ZyF-20" value="" style="edgeStyle=orthogonalEdgeStyle;rounded=0;orthogonalLoop=1;jettySize=auto;html=1;entryX=0.5;entryY=0;entryDx=0;entryDy=0;" parent="1" source="PEJdaX_Vnmm6AX028ZyF-18" edge="1">
          <mxGeometry relative="1" as="geometry">
            <mxPoint x="140" y="640" as="targetPoint" />
          </mxGeometry>
        </mxCell>
        <mxCell id="PEJdaX_Vnmm6AX028ZyF-35" value="code&lt;br&gt;commit" style="edgeLabel;html=1;align=center;verticalAlign=middle;resizable=0;points=[];" parent="PEJdaX_Vnmm6AX028ZyF-20" vertex="1" connectable="0">
          <mxGeometry x="-0.3333" y="3" relative="1" as="geometry">
            <mxPoint as="offset" />
          </mxGeometry>
        </mxCell>
        <mxCell id="PEJdaX_Vnmm6AX028ZyF-18" value="Dev" style="shape=umlActor;verticalLabelPosition=bottom;labelBackgroundColor=#ffffff;verticalAlign=top;html=1;outlineConnect=0;" parent="1" vertex="1">
          <mxGeometry x="30" y="555" width="30" height="60" as="geometry" />
        </mxCell>
        <mxCell id="PEJdaX_Vnmm6AX028ZyF-28" value="Pre/Pro" style="rounded=1;whiteSpace=wrap;html=1;" parent="1" vertex="1">
          <mxGeometry x="256" y="830" width="120" height="60" as="geometry" />
        </mxCell>
        <mxCell id="PEJdaX_Vnmm6AX028ZyF-26" value="Test" style="rounded=1;whiteSpace=wrap;html=1;" parent="1" vertex="1">
          <mxGeometry x="450" y="663.84" width="120" height="60" as="geometry" />
        </mxCell>
        <mxCell id="PEJdaX_Vnmm6AX028ZyF-24" value="Dev" style="rounded=1;whiteSpace=wrap;html=1;" parent="1" vertex="1">
          <mxGeometry x="255" y="500" width="120" height="60" as="geometry" />
        </mxCell>
        <mxCell id="NojFLYtRVfcwV4M3pSk--27" value="" style="edgeStyle=orthogonalEdgeStyle;rounded=0;orthogonalLoop=1;jettySize=auto;html=1;" edge="1" parent="1" source="NojFLYtRVfcwV4M3pSk--2" target="NojFLYtRVfcwV4M3pSk--3">
          <mxGeometry relative="1" as="geometry" />
        </mxCell>
        <mxCell id="NojFLYtRVfcwV4M3pSk--2" value="" style="shape=image;imageAspect=0;aspect=fixed;verticalLabelPosition=bottom;verticalAlign=top;image=http://www.linuxidc.com/upload/2016_05/160523150077221.png;" vertex="1" parent="1">
          <mxGeometry x="85" y="640" width="110" height="107.68" as="geometry" />
        </mxCell>
        <mxCell id="NojFLYtRVfcwV4M3pSk--20" value="" style="edgeStyle=orthogonalEdgeStyle;rounded=0;orthogonalLoop=1;jettySize=auto;html=1;" edge="1" parent="1" source="NojFLYtRVfcwV4M3pSk--3">
          <mxGeometry relative="1" as="geometry">
            <mxPoint x="315" y="560" as="targetPoint" />
          </mxGeometry>
        </mxCell>
        <mxCell id="NojFLYtRVfcwV4M3pSk--25" value="&lt;span style=&quot;color: rgb(51 , 51 , 51) ; font-family: &amp;#34;arial&amp;#34; ; font-size: 13px&quot;&gt;develop&lt;/span&gt;" style="edgeLabel;html=1;align=center;verticalAlign=middle;resizable=0;points=[];" vertex="1" connectable="0" parent="NojFLYtRVfcwV4M3pSk--20">
          <mxGeometry x="0.15" y="3" relative="1" as="geometry">
            <mxPoint as="offset" />
          </mxGeometry>
        </mxCell>
        <mxCell id="NojFLYtRVfcwV4M3pSk--22" value="" style="edgeStyle=orthogonalEdgeStyle;rounded=0;orthogonalLoop=1;jettySize=auto;html=1;" edge="1" parent="1" source="NojFLYtRVfcwV4M3pSk--3">
          <mxGeometry relative="1" as="geometry">
            <mxPoint x="450" y="695" as="targetPoint" />
          </mxGeometry>
        </mxCell>
        <mxCell id="NojFLYtRVfcwV4M3pSk--24" value="release" style="edgeLabel;html=1;align=center;verticalAlign=middle;resizable=0;points=[];" vertex="1" connectable="0" parent="NojFLYtRVfcwV4M3pSk--22">
          <mxGeometry x="-0.05" y="4" relative="1" as="geometry">
            <mxPoint as="offset" />
          </mxGeometry>
        </mxCell>
        <mxCell id="NojFLYtRVfcwV4M3pSk--30" value="" style="edgeStyle=orthogonalEdgeStyle;rounded=0;orthogonalLoop=1;jettySize=auto;html=1;" edge="1" parent="1" source="NojFLYtRVfcwV4M3pSk--3">
          <mxGeometry relative="1" as="geometry">
            <mxPoint x="316" y="828.6799999999998" as="targetPoint" />
          </mxGeometry>
        </mxCell>
        <mxCell id="NojFLYtRVfcwV4M3pSk--31" value="master" style="edgeLabel;html=1;align=center;verticalAlign=middle;resizable=0;points=[];" vertex="1" connectable="0" parent="NojFLYtRVfcwV4M3pSk--30">
          <mxGeometry x="-0.067" y="1" relative="1" as="geometry">
            <mxPoint as="offset" />
          </mxGeometry>
        </mxCell>
        <mxCell id="NojFLYtRVfcwV4M3pSk--3" value="" style="shape=image;imageAspect=0;aspect=fixed;verticalLabelPosition=bottom;verticalAlign=top;image=http://img3.imgtn.bdimg.com/it/u=1786026591,2745054076&amp;fm=26&amp;gp=0.jpg;" vertex="1" parent="1">
          <mxGeometry x="261" y="638.68" width="110" height="110" as="geometry" />
        </mxCell>
      </root>
    </mxGraphModel>
  </diagram>
</mxfile>
